<svg width="131" height="109" viewBox="0 0 131 109" fill="none" xmlns="http://www.w3.org/2000/svg">
<path d="M130.038 0C69.1849 17.1121 68.9155 72.6299 76.3874 98.2498C77.2448 95.712 86.6538 85.4157 98.4129 76.1346C113.112 64.5331 113.479 65.0769 120.277 57.4635C122.729 54.7178 128.49 46.0433 130.038 32.2665C131.118 22.6591 131.508 7.13006 130.038 0Z" fill="#95C22B"/>
<path d="M20.6002 27.7114C8.1146 27.7114 1.77799 30.0932 0 30.2764C7.35722 64.3549 51.8684 85.6077 62.1685 88.5392C70.4086 90.8844 76.1472 95.99 77.9865 98.2497C79.0901 91.8371 71.6397 65.786 65.2002 54.564C59.035 43.8201 39.1772 27.7114 20.6002 27.7114Z" fill="#799B29"/>
<path d="M12.5964 90.6925H131C131 100.432 123.105 108.327 113.365 108.327H30.231C20.4917 108.327 12.5964 100.432 12.5964 90.6925Z" fill="#985B38"/>
</svg>
