<svg width="955" height="649" viewBox="0 0 955 649" fill="none" xmlns="http://www.w3.org/2000/svg">
<path d="M117.913 307.079C85.596 307.079 60.3212 297.335 42.0886 277.849C23.9525 258.362 14.8845 231.688 14.8845 197.828C14.8845 176.315 19.1291 157.407 27.6183 141.104C36.1076 124.705 48.6003 111.922 65.0964 102.758C81.5925 93.5934 101.079 89.0111 123.556 89.0111C149.314 89.0111 171.405 94.5581 189.83 105.652L177.097 134.882C159.539 125.428 141.934 120.701 124.28 120.701C102.864 120.701 86.0301 127.647 73.7786 141.538C61.5271 155.43 55.4013 174.338 55.4013 198.262C55.4013 221.993 60.8518 240.756 71.7527 254.551C82.6537 268.346 98.6193 275.244 119.649 275.244C133.155 275.244 145.407 273.122 156.404 268.877V219.678H111.98L112.27 188.856H193.303V291.161C180.184 296.563 167.739 300.567 155.97 303.172C144.297 305.776 131.612 307.079 117.913 307.079ZM235.412 304.04V92.0499H274.626V272.784H363.329L362.172 304.04H235.412ZM390.533 304.04V92.0499H519.03L517.438 123.161H429.748V177.859H513.097V208.97H429.748V272.784H520.621L519.319 304.04H390.533ZM533.934 304.04L611.929 91.9052H654.616L731.454 304.04H691.226L670.244 244.133H596.012L574.885 304.04H533.934ZM605.852 214.903H660.26C642.896 159.24 633.972 130.493 633.49 128.66L605.852 214.903ZM752.58 304.04V92.0499H794.255C801.78 103.819 817.07 127.55 840.126 163.244C863.182 198.937 877.218 220.643 882.234 228.36C883.681 230.579 886.141 234.341 889.614 239.647C893.184 244.856 895.692 248.57 897.139 250.789C896.464 217.7 896.126 200.529 896.126 199.275V92.0499H931.868V304.04H889.614L793.966 154.996L787.02 143.564C787.792 169.032 788.177 186.927 788.177 197.249V304.04H752.58Z" fill="#95C22B"/>
<path d="M89.7701 391.325C78.7031 391.325 69.1603 394.009 61.1417 399.377C53.1893 404.745 47.2582 411.968 43.3483 421.047C39.4384 430.126 37.4835 440.563 37.4835 452.359C37.4835 461.173 38.5438 469.225 40.6644 476.515C42.785 483.738 45.966 490.1 50.2072 495.6C54.4485 501.034 59.9488 505.276 66.7083 508.324C73.5341 511.306 81.3539 512.797 90.1677 512.797C101.5 512.797 113.229 509.848 125.357 503.95L128.24 518.563C118.365 524.792 105.012 527.907 88.1796 527.907C77.1126 527.907 67.1722 526.084 58.3584 522.439C49.6108 518.728 42.3543 513.526 36.5888 506.833C30.8897 500.073 26.549 492.055 23.5669 482.777C20.5848 473.433 19.0937 463.062 19.0937 451.664C19.0937 440.663 20.7173 430.524 23.9645 421.246C27.2117 411.968 31.7843 404.016 37.6823 397.389C43.6465 390.696 51.0687 385.493 59.9488 381.782C68.8289 378.071 78.7031 376.216 89.5713 376.216C106.072 376.216 119.989 379.861 131.321 387.15L124.562 401.166C113.693 394.606 102.096 391.325 89.7701 391.325ZM162.534 471.445C162.534 484.368 165.384 494.739 171.083 502.559C176.848 510.312 185.231 514.189 196.232 514.189C207.1 514.189 215.285 510.312 220.785 502.559C226.352 494.805 229.135 484.368 229.135 471.246C229.135 457.926 226.385 447.455 220.884 439.834C215.45 432.147 207.133 428.304 195.934 428.304C185.066 428.304 176.782 432.213 171.083 440.033C165.384 447.853 162.534 458.324 162.534 471.445ZM246.332 471.147C246.332 488.046 241.825 501.763 232.813 512.3C223.8 522.771 211.341 528.006 195.437 528.006C180.129 528.006 167.935 522.704 158.856 512.101C149.843 501.498 145.337 487.88 145.337 471.246C145.337 454.281 149.877 440.563 158.955 430.093C168.034 419.622 180.493 414.387 196.331 414.387C211.905 414.387 224.131 419.655 233.012 430.192C241.892 440.663 246.332 454.314 246.332 471.147ZM282.018 471.445C282.018 484.368 284.867 494.739 290.567 502.559C296.332 510.312 304.715 514.189 315.716 514.189C326.584 514.189 334.768 510.312 340.269 502.559C345.835 494.805 348.619 484.368 348.619 471.246C348.619 457.926 345.869 447.455 340.368 439.834C334.934 432.147 326.617 428.304 315.418 428.304C304.55 428.304 296.266 432.213 290.567 440.033C284.867 447.853 282.018 458.324 282.018 471.445ZM365.816 471.147C365.816 488.046 361.309 501.763 352.297 512.3C343.284 522.771 330.825 528.006 314.921 528.006C299.612 528.006 287.419 522.704 278.34 512.101C269.327 501.498 264.821 487.88 264.821 471.246C264.821 454.281 269.36 440.563 278.439 430.093C287.518 419.622 299.977 414.387 315.815 414.387C331.389 414.387 343.615 419.655 352.495 430.192C361.376 440.663 365.816 454.314 365.816 471.147ZM389.573 525.72V374.327L406.074 373.333V452.558V466.475C406.472 466.077 407.068 465.414 407.864 464.487C408.659 463.559 409.288 462.863 409.752 462.399C415.518 456.104 430.428 440.862 454.484 416.673H475.558L430.23 462.598L478.739 525.72H458.063L418.202 472.041L406.074 482.479V525.72H389.573ZM513.232 455.739V511.604H543.948C556.407 511.604 565.751 509.318 571.98 504.745C578.209 500.107 581.324 492.916 581.324 483.175C581.324 473.035 577.944 465.945 571.185 461.902C564.492 457.794 554.021 455.739 539.773 455.739H513.232ZM513.232 441.922H544.743C555.015 441.922 562.769 440.133 568.004 436.554C573.239 432.976 575.857 426.614 575.857 417.469C575.857 408.257 572.709 401.928 566.413 398.482C560.184 394.97 550.476 393.214 537.288 393.214H513.232V441.922ZM496.035 378.701H538.183C557.069 378.701 571.052 381.584 580.131 387.349C589.276 393.114 593.849 402.293 593.849 414.884C593.849 416.74 593.716 418.595 593.451 420.451C593.253 422.24 592.656 424.559 591.662 427.409C590.734 430.259 589.442 432.876 587.785 435.262C586.129 437.581 583.677 439.934 580.429 442.32C577.248 444.639 573.504 446.495 569.197 447.886C579.071 449.742 586.559 453.917 591.662 460.411C596.765 466.906 599.316 474.725 599.316 483.871C599.316 497.191 594.942 507.496 586.195 514.785C577.514 522.075 564.558 525.72 547.328 525.72H496.035V378.701ZM632.915 471.445C632.915 484.368 635.764 494.739 641.464 502.559C647.229 510.312 655.612 514.189 666.613 514.189C677.481 514.189 685.665 510.312 691.166 502.559C696.732 494.805 699.516 484.368 699.516 471.246C699.516 457.926 696.766 447.455 691.265 439.834C685.831 432.147 677.514 428.304 666.315 428.304C655.447 428.304 647.163 432.213 641.464 440.033C635.764 447.853 632.915 458.324 632.915 471.445ZM716.713 471.147C716.713 488.046 712.206 501.763 703.194 512.3C694.181 522.771 681.722 528.006 665.818 528.006C650.509 528.006 638.316 522.704 629.237 512.101C620.224 501.498 615.718 487.88 615.718 471.246C615.718 454.281 620.257 440.563 629.336 430.093C638.415 419.622 650.874 414.387 666.712 414.387C682.286 414.387 694.512 419.655 703.392 430.192C712.273 440.663 716.713 454.314 716.713 471.147ZM752.399 471.445C752.399 484.368 755.248 494.739 760.948 502.559C766.713 510.312 775.096 514.189 786.097 514.189C796.965 514.189 805.149 510.312 810.65 502.559C816.216 494.805 819 484.368 819 471.246C819 457.926 816.249 447.455 810.749 439.834C805.315 432.147 796.998 428.304 785.799 428.304C774.93 428.304 766.647 432.213 760.948 440.033C755.248 447.853 752.399 458.324 752.399 471.445ZM836.197 471.147C836.197 488.046 831.69 501.763 822.678 512.3C813.665 522.771 801.206 528.006 785.302 528.006C769.993 528.006 757.8 522.704 748.721 512.101C739.708 501.498 735.202 487.88 735.202 471.246C735.202 454.281 739.741 440.563 748.82 430.093C757.899 419.622 770.358 414.387 786.196 414.387C801.77 414.387 813.996 419.655 822.876 430.192C831.756 440.663 836.197 454.314 836.197 471.147ZM859.954 525.72V374.327L876.455 373.333V452.558V466.475C876.853 466.077 877.449 465.414 878.245 464.487C879.04 463.559 879.669 462.863 880.133 462.399C885.899 456.104 900.809 440.862 924.865 416.673H945.939L900.61 462.598L949.12 525.72H928.444L888.583 472.041L876.455 482.479V525.72H859.954Z" fill="#7B4425"/>
<path d="M53.1351 646.733C52.2508 646.733 51.4624 646.659 50.7697 646.512C50.0771 646.379 49.5981 646.247 49.3328 646.114L50.6592 641.516C51.9266 641.84 53.0467 641.958 54.0193 641.87C54.992 641.781 55.8542 641.347 56.6058 640.566C57.3721 639.799 58.0721 638.554 58.7059 636.83L59.6785 634.177L47.1222 600.045H52.7814L62.1544 627.103H62.5081L71.8812 600.045H77.5404L63.1271 638.952C62.4787 640.706 61.6755 642.157 60.7175 643.307C59.7596 644.471 58.6469 645.333 57.3795 645.893C56.1268 646.453 54.712 646.733 53.1351 646.733ZM97.0049 634.707C93.9395 634.707 91.2499 633.978 88.9361 632.519C86.6371 631.06 84.8391 629.019 83.5422 626.395C82.26 623.772 81.619 620.707 81.619 617.199C81.619 613.662 82.26 610.575 83.5422 607.937C84.8391 605.299 86.6371 603.25 88.9361 601.791C91.2499 600.332 93.9395 599.603 97.0049 599.603C100.07 599.603 102.752 600.332 105.052 601.791C107.365 603.25 109.163 605.299 110.445 607.937C111.742 610.575 112.391 613.662 112.391 617.199C112.391 620.707 111.742 623.772 110.445 626.395C109.163 629.019 107.365 631.06 105.052 632.519C102.752 633.978 100.07 634.707 97.0049 634.707ZM97.0049 630.021C99.3334 630.021 101.249 629.424 102.752 628.23C104.256 627.037 105.368 625.467 106.091 623.522C106.813 621.576 107.174 619.469 107.174 617.199C107.174 614.93 106.813 612.815 106.091 610.855C105.368 608.895 104.256 607.31 102.752 606.102C101.249 604.893 99.3334 604.289 97.0049 604.289C94.6764 604.289 92.7605 604.893 91.2573 606.102C89.754 607.31 88.6414 608.895 87.9192 610.855C87.1971 612.815 86.836 614.93 86.836 617.199C86.836 619.469 87.1971 621.576 87.9192 623.522C88.6414 625.467 89.754 627.037 91.2573 628.23C92.7605 629.424 94.6764 630.021 97.0049 630.021ZM141.753 620.117V600.045H146.97V634H141.753V628.252H141.4C140.604 629.977 139.366 631.443 137.686 632.652C136.006 633.845 133.884 634.442 131.319 634.442C129.197 634.442 127.311 633.978 125.66 633.049C124.009 632.106 122.713 630.691 121.769 628.805C120.826 626.904 120.355 624.509 120.355 621.621V600.045H125.572V621.267C125.572 623.743 126.264 625.718 127.65 627.191C129.05 628.665 130.833 629.402 132.999 629.402C134.296 629.402 135.615 629.07 136.956 628.407C138.312 627.744 139.447 626.727 140.361 625.356C141.289 623.986 141.753 622.239 141.753 620.117ZM156.526 634V600.045H161.566V605.173H161.92C162.539 603.493 163.659 602.13 165.28 601.084C166.901 600.037 168.729 599.514 170.762 599.514C171.145 599.514 171.624 599.522 172.199 599.536C172.774 599.551 173.209 599.573 173.503 599.603V604.908C173.327 604.864 172.921 604.798 172.288 604.709C171.669 604.606 171.013 604.555 170.32 604.555C168.67 604.555 167.196 604.901 165.899 605.594C164.617 606.271 163.6 607.215 162.848 608.423C162.111 609.617 161.743 610.98 161.743 612.513V634H156.526ZM210.902 647.441C208.382 647.441 206.215 647.116 204.402 646.468C202.59 645.834 201.079 644.994 199.871 643.948C198.677 642.916 197.726 641.811 197.019 640.632L201.175 637.714C201.647 638.333 202.243 639.04 202.966 639.836C203.688 640.647 204.675 641.347 205.928 641.936C207.195 642.54 208.853 642.842 210.902 642.842C213.643 642.842 215.905 642.179 217.688 640.853C219.471 639.527 220.363 637.449 220.363 634.619V627.722H219.921C219.538 628.341 218.993 629.107 218.285 630.021C217.592 630.92 216.59 631.723 215.279 632.43C213.982 633.123 212.228 633.469 210.017 633.469C207.276 633.469 204.815 632.821 202.634 631.524C200.468 630.227 198.751 628.341 197.483 625.865C196.23 623.389 195.604 620.383 195.604 616.846C195.604 613.368 196.216 610.339 197.439 607.76C198.662 605.166 200.364 603.162 202.546 601.747C204.727 600.317 207.247 599.603 210.106 599.603C212.316 599.603 214.07 599.971 215.367 600.708C216.679 601.43 217.681 602.255 218.374 603.184C219.081 604.098 219.626 604.849 220.009 605.439H220.54V600.045H225.58V634.973C225.58 637.891 224.917 640.263 223.591 642.091C222.279 643.933 220.51 645.282 218.285 646.136C216.075 647.006 213.613 647.441 210.902 647.441ZM210.725 628.783C212.818 628.783 214.586 628.304 216.03 627.346C217.475 626.388 218.573 625.01 219.324 623.212C220.076 621.414 220.452 619.263 220.452 616.757C220.452 614.311 220.083 612.152 219.346 610.28C218.609 608.408 217.519 606.942 216.075 605.881C214.63 604.82 212.847 604.289 210.725 604.289C208.514 604.289 206.672 604.849 205.198 605.969C203.739 607.089 202.641 608.593 201.904 610.479C201.182 612.365 200.821 614.458 200.821 616.757C200.821 619.115 201.19 621.2 201.927 623.013C202.678 624.811 203.783 626.226 205.242 627.258C206.716 628.274 208.544 628.783 210.725 628.783ZM240.347 588.726V634H235.13V588.726H240.347ZM264.139 634.707C260.867 634.707 258.045 633.985 255.672 632.541C253.314 631.082 251.494 629.048 250.212 626.44C248.945 623.816 248.311 620.766 248.311 617.288C248.311 613.81 248.945 610.744 250.212 608.092C251.494 605.424 253.277 603.346 255.562 601.858C257.861 600.354 260.543 599.603 263.608 599.603C265.377 599.603 267.123 599.897 268.848 600.487C270.572 601.076 272.141 602.034 273.556 603.361C274.971 604.672 276.098 606.411 276.938 608.578C277.778 610.744 278.199 613.412 278.199 616.58V618.791H252.025V614.281H272.893C272.893 612.365 272.51 610.656 271.743 609.153C270.992 607.649 269.916 606.463 268.516 605.594C267.131 604.724 265.495 604.289 263.608 604.289C261.53 604.289 259.732 604.805 258.214 605.837C256.711 606.854 255.554 608.18 254.744 609.816C253.933 611.452 253.528 613.205 253.528 615.077V618.084C253.528 620.648 253.97 622.822 254.854 624.605C255.753 626.373 256.999 627.722 258.59 628.65C260.182 629.564 262.031 630.021 264.139 630.021C265.51 630.021 266.747 629.829 267.853 629.446C268.973 629.048 269.938 628.459 270.749 627.678C271.559 626.882 272.186 625.894 272.628 624.715L277.668 626.13C277.137 627.84 276.246 629.343 274.993 630.64C273.74 631.922 272.193 632.924 270.351 633.646C268.509 634.354 266.438 634.707 264.139 634.707ZM296.127 634.796C293.975 634.796 292.022 634.391 290.269 633.58C288.515 632.755 287.122 631.568 286.09 630.021C285.059 628.459 284.543 626.572 284.543 624.362C284.543 622.416 284.926 620.839 285.693 619.631C286.459 618.408 287.483 617.45 288.765 616.757C290.047 616.064 291.462 615.549 293.01 615.21C294.572 614.856 296.141 614.576 297.718 614.37C299.782 614.104 301.454 613.905 302.736 613.773C304.033 613.625 304.977 613.382 305.566 613.043C306.17 612.704 306.472 612.115 306.472 611.275V611.098C306.472 608.917 305.875 607.222 304.682 606.014C303.503 604.805 301.712 604.201 299.31 604.201C296.819 604.201 294.867 604.746 293.452 605.837C292.037 606.927 291.042 608.092 290.467 609.329L285.516 607.561C286.4 605.498 287.579 603.891 289.053 602.742C290.541 601.578 292.162 600.767 293.916 600.31C295.685 599.839 297.424 599.603 299.133 599.603C300.224 599.603 301.476 599.735 302.891 600.001C304.321 600.251 305.699 600.774 307.025 601.57C308.366 602.366 309.479 603.567 310.363 605.173C311.247 606.78 311.689 608.932 311.689 611.629V634H306.472V629.402H306.207C305.853 630.139 305.264 630.927 304.439 631.767C303.613 632.607 302.515 633.322 301.145 633.912C299.774 634.501 298.101 634.796 296.127 634.796ZM296.922 630.109C298.986 630.109 300.725 629.704 302.14 628.893C303.569 628.083 304.645 627.037 305.367 625.754C306.104 624.472 306.472 623.124 306.472 621.709V616.934C306.251 617.199 305.765 617.442 305.013 617.664C304.276 617.87 303.422 618.054 302.449 618.216C301.491 618.364 300.555 618.496 299.642 618.614C298.743 618.717 298.013 618.806 297.453 618.879C296.097 619.056 294.83 619.344 293.651 619.741C292.486 620.125 291.543 620.707 290.821 621.488C290.114 622.254 289.76 623.301 289.76 624.627C289.76 626.44 290.431 627.81 291.772 628.739C293.128 629.652 294.844 630.109 296.922 630.109ZM326.429 613.574V634H321.212V600.045H326.252V605.35H326.694C327.49 603.626 328.698 602.241 330.319 601.194C331.941 600.133 334.033 599.603 336.598 599.603C338.897 599.603 340.908 600.074 342.633 601.018C344.357 601.946 345.698 603.361 346.656 605.262C347.614 607.148 348.093 609.536 348.093 612.424V634H342.876V612.778C342.876 610.111 342.183 608.033 340.798 606.544C339.412 605.041 337.511 604.289 335.094 604.289C333.429 604.289 331.941 604.65 330.629 605.372C329.332 606.095 328.308 607.148 327.556 608.534C326.805 609.919 326.429 611.599 326.429 613.574ZM375.134 646.733V600.045H380.175V605.439H380.793C381.177 604.849 381.707 604.098 382.385 603.184C383.078 602.255 384.065 601.43 385.347 600.708C386.644 599.971 388.398 599.603 390.609 599.603C393.468 599.603 395.988 600.317 398.169 601.747C400.35 603.177 402.052 605.203 403.276 607.826C404.499 610.45 405.11 613.544 405.11 617.111C405.11 620.707 404.499 623.824 403.276 626.462C402.052 629.085 400.357 631.119 398.191 632.563C396.025 633.993 393.527 634.707 390.697 634.707C388.516 634.707 386.77 634.346 385.458 633.624C384.146 632.887 383.137 632.055 382.429 631.126C381.722 630.183 381.177 629.402 380.793 628.783H380.351V646.733H375.134ZM380.263 617.022C380.263 619.587 380.639 621.849 381.39 623.809C382.142 625.754 383.24 627.28 384.684 628.385C386.128 629.476 387.897 630.021 389.99 630.021C392.171 630.021 393.991 629.446 395.45 628.297C396.924 627.132 398.029 625.57 398.766 623.61C399.517 621.635 399.893 619.439 399.893 617.022C399.893 614.635 399.525 612.483 398.788 610.567C398.066 608.637 396.968 607.111 395.494 605.991C394.035 604.857 392.2 604.289 389.99 604.289C387.867 604.289 386.084 604.827 384.64 605.903C383.196 606.964 382.105 608.453 381.368 610.368C380.631 612.27 380.263 614.488 380.263 617.022ZM413.069 634V600.045H418.109V605.173H418.462C419.081 603.493 420.201 602.13 421.823 601.084C423.444 600.037 425.271 599.514 427.305 599.514C427.688 599.514 428.167 599.522 428.742 599.536C429.317 599.551 429.751 599.573 430.046 599.603V604.908C429.869 604.864 429.464 604.798 428.83 604.709C428.211 604.606 427.555 604.555 426.863 604.555C425.212 604.555 423.738 604.901 422.442 605.594C421.159 606.271 420.143 607.215 419.391 608.423C418.654 609.617 418.286 610.98 418.286 612.513V634H413.069ZM448.991 634.707C445.926 634.707 443.236 633.978 440.922 632.519C438.623 631.06 436.825 629.019 435.528 626.395C434.246 623.772 433.605 620.707 433.605 617.199C433.605 613.662 434.246 610.575 435.528 607.937C436.825 605.299 438.623 603.25 440.922 601.791C443.236 600.332 445.926 599.603 448.991 599.603C452.057 599.603 454.739 600.332 457.038 601.791C459.352 603.25 461.15 605.299 462.432 607.937C463.729 610.575 464.377 613.662 464.377 617.199C464.377 620.707 463.729 623.772 462.432 626.395C461.15 629.019 459.352 631.06 457.038 632.519C454.739 633.978 452.057 634.707 448.991 634.707ZM448.991 630.021C451.32 630.021 453.236 629.424 454.739 628.23C456.242 627.037 457.355 625.467 458.077 623.522C458.799 621.576 459.16 619.469 459.16 617.199C459.16 614.93 458.799 612.815 458.077 610.855C457.355 608.895 456.242 607.31 454.739 606.102C453.236 604.893 451.32 604.289 448.991 604.289C446.663 604.289 444.747 604.893 443.244 606.102C441.74 607.31 440.628 608.895 439.906 610.855C439.183 612.815 438.822 614.93 438.822 617.199C438.822 619.469 439.183 621.576 439.906 623.522C440.628 625.467 441.74 627.037 443.244 628.23C444.747 629.424 446.663 630.021 448.991 630.021ZM472.341 600.045H477.558V636.476C477.558 638.569 477.197 640.381 476.475 641.914C475.767 643.447 474.691 644.633 473.247 645.473C471.818 646.313 470.012 646.733 467.831 646.733C467.654 646.733 467.477 646.733 467.301 646.733C467.124 646.733 466.947 646.733 466.77 646.733V641.87C466.947 641.87 467.109 641.87 467.256 641.87C467.404 641.87 467.566 641.87 467.743 641.87C469.334 641.87 470.499 641.398 471.236 640.455C471.972 639.527 472.341 638.2 472.341 636.476V600.045ZM474.905 594.386C473.888 594.386 473.011 594.039 472.275 593.347C471.552 592.654 471.191 591.821 471.191 590.849C471.191 589.876 471.552 589.043 472.275 588.351C473.011 587.658 473.888 587.312 474.905 587.312C475.922 587.312 476.792 587.658 477.514 588.351C478.251 589.043 478.619 589.876 478.619 590.849C478.619 591.821 478.251 592.654 477.514 593.347C476.792 594.039 475.922 594.386 474.905 594.386ZM501.35 634.707C498.078 634.707 495.256 633.985 492.883 632.541C490.525 631.082 488.705 629.048 487.423 626.44C486.155 623.816 485.522 620.766 485.522 617.288C485.522 613.81 486.155 610.744 487.423 608.092C488.705 605.424 490.488 603.346 492.773 601.858C495.072 600.354 497.754 599.603 500.819 599.603C502.588 599.603 504.334 599.897 506.058 600.487C507.783 601.076 509.352 602.034 510.767 603.361C512.182 604.672 513.309 606.411 514.149 608.578C514.989 610.744 515.409 613.412 515.409 616.58V618.791H489.236V614.281H510.104C510.104 612.365 509.721 610.656 508.954 609.153C508.203 607.649 507.127 606.463 505.727 605.594C504.341 604.724 502.706 604.289 500.819 604.289C498.741 604.289 496.943 604.805 495.425 605.837C493.922 606.854 492.765 608.18 491.955 609.816C491.144 611.452 490.739 613.205 490.739 615.077V618.084C490.739 620.648 491.181 622.822 492.065 624.605C492.964 626.373 494.209 627.722 495.801 628.65C497.393 629.564 499.242 630.021 501.35 630.021C502.72 630.021 503.958 629.829 505.064 629.446C506.184 629.048 507.149 628.459 507.959 627.678C508.77 626.882 509.396 625.894 509.839 624.715L514.879 626.13C514.348 627.84 513.457 629.343 512.204 630.64C510.951 631.922 509.404 632.924 507.562 633.646C505.719 634.354 503.649 634.707 501.35 634.707ZM537.14 634.707C533.956 634.707 531.215 633.956 528.916 632.453C526.617 630.949 524.849 628.879 523.611 626.241C522.373 623.603 521.754 620.589 521.754 617.199C521.754 613.751 522.388 610.707 523.655 608.069C524.937 605.417 526.72 603.346 529.005 601.858C531.304 600.354 533.986 599.603 537.051 599.603C539.439 599.603 541.59 600.045 543.506 600.929C545.422 601.813 546.992 603.051 548.215 604.643C549.438 606.235 550.197 608.092 550.492 610.214H545.275C544.877 608.666 543.993 607.296 542.622 606.102C541.266 604.893 539.439 604.289 537.14 604.289C535.106 604.289 533.323 604.82 531.79 605.881C530.272 606.927 529.086 608.408 528.231 610.324C527.391 612.225 526.971 614.458 526.971 617.022C526.971 619.646 527.384 621.93 528.209 623.875C529.049 625.821 530.228 627.331 531.746 628.407C533.279 629.483 535.076 630.021 537.14 630.021C538.496 630.021 539.726 629.785 540.831 629.313C541.937 628.842 542.873 628.164 543.639 627.28C544.405 626.395 544.951 625.334 545.275 624.096H550.492C550.197 626.101 549.468 627.906 548.303 629.512C547.154 631.104 545.629 632.372 543.727 633.315C541.841 634.243 539.645 634.707 537.14 634.707ZM572.885 600.045V604.466H555.289V600.045H572.885ZM560.418 591.91H565.635V624.273C565.635 625.747 565.848 626.852 566.276 627.589C566.718 628.311 567.278 628.798 567.956 629.048C568.648 629.284 569.378 629.402 570.144 629.402C570.719 629.402 571.191 629.372 571.559 629.313C571.928 629.24 572.222 629.181 572.443 629.137L573.504 633.823C573.151 633.956 572.657 634.088 572.023 634.221C571.39 634.368 570.586 634.442 569.614 634.442C568.14 634.442 566.696 634.125 565.281 633.492C563.881 632.858 562.717 631.893 561.788 630.596C560.874 629.299 560.418 627.663 560.418 625.688V591.91ZM612.036 634.707C608.852 634.707 606.111 633.956 603.812 632.453C601.513 630.949 599.745 628.879 598.507 626.241C597.269 623.603 596.65 620.589 596.65 617.199C596.65 613.751 597.283 610.707 598.551 608.069C599.833 605.417 601.616 603.346 603.901 601.858C606.2 600.354 608.882 599.603 611.947 599.603C614.335 599.603 616.486 600.045 618.402 600.929C620.318 601.813 621.888 603.051 623.111 604.643C624.334 606.235 625.093 608.092 625.388 610.214H620.171C619.773 608.666 618.889 607.296 617.518 606.102C616.162 604.893 614.335 604.289 612.036 604.289C610.002 604.289 608.219 604.82 606.686 605.881C605.168 606.927 603.982 608.408 603.127 610.324C602.287 612.225 601.867 614.458 601.867 617.022C601.867 619.646 602.279 621.93 603.105 623.875C603.945 625.821 605.124 627.331 606.642 628.407C608.174 629.483 609.972 630.021 612.036 630.021C613.391 630.021 614.622 629.785 615.727 629.313C616.833 628.842 617.768 628.164 618.535 627.28C619.301 626.395 619.846 625.334 620.171 624.096H625.388C625.093 626.101 624.363 627.906 623.199 629.512C622.05 631.104 620.524 632.372 618.623 633.315C616.737 634.243 614.541 634.707 612.036 634.707ZM646.809 634.707C643.743 634.707 641.054 633.978 638.74 632.519C636.441 631.06 634.643 629.019 633.346 626.395C632.064 623.772 631.423 620.707 631.423 617.199C631.423 613.662 632.064 610.575 633.346 607.937C634.643 605.299 636.441 603.25 638.74 601.791C641.054 600.332 643.743 599.603 646.809 599.603C649.874 599.603 652.556 600.332 654.855 601.791C657.169 603.25 658.967 605.299 660.249 607.937C661.546 610.575 662.195 613.662 662.195 617.199C662.195 620.707 661.546 623.772 660.249 626.395C658.967 629.019 657.169 631.06 654.855 632.519C652.556 633.978 649.874 634.707 646.809 634.707ZM646.809 630.021C649.137 630.021 651.053 629.424 652.556 628.23C654.06 627.037 655.172 625.467 655.894 623.522C656.616 621.576 656.978 619.469 656.978 617.199C656.978 614.93 656.616 612.815 655.894 610.855C655.172 608.895 654.06 607.31 652.556 606.102C651.053 604.893 649.137 604.289 646.809 604.289C644.48 604.289 642.564 604.893 641.061 606.102C639.558 607.31 638.445 608.895 637.723 610.855C637.001 612.815 636.64 614.93 636.64 617.199C636.64 619.469 637.001 621.576 637.723 623.522C638.445 625.467 639.558 627.037 641.061 628.23C642.564 629.424 644.48 630.021 646.809 630.021ZM670.158 634V600.045H675.199V605.35H675.641C676.348 603.538 677.49 602.13 679.067 601.128C680.644 600.111 682.538 599.603 684.748 599.603C686.989 599.603 688.853 600.111 690.341 601.128C691.845 602.13 693.016 603.538 693.856 605.35H694.21C695.079 603.597 696.384 602.204 698.123 601.172C699.862 600.126 701.947 599.603 704.379 599.603C707.415 599.603 709.898 600.553 711.829 602.454C713.759 604.341 714.725 607.281 714.725 611.275V634H709.507V611.275C709.507 608.769 708.822 606.979 707.452 605.903C706.081 604.827 704.467 604.289 702.61 604.289C700.223 604.289 698.373 605.011 697.062 606.456C695.75 607.885 695.094 609.698 695.094 611.894V634H689.789V610.744C689.789 608.814 689.162 607.259 687.91 606.08C686.657 604.886 685.043 604.289 683.068 604.289C681.713 604.289 680.445 604.65 679.266 605.372C678.102 606.095 677.159 607.097 676.437 608.379C675.729 609.646 675.375 611.113 675.375 612.778V634H670.158ZM724.263 646.733V600.045H729.304V605.439H729.923C730.306 604.849 730.836 604.098 731.514 603.184C732.207 602.255 733.194 601.43 734.476 600.708C735.773 599.971 737.527 599.603 739.738 599.603C742.597 599.603 745.117 600.317 747.298 601.747C749.479 603.177 751.181 605.203 752.405 607.826C753.628 610.45 754.239 613.544 754.239 617.111C754.239 620.707 753.628 623.824 752.405 626.462C751.181 629.085 749.487 631.119 747.32 632.563C745.154 633.993 742.656 634.707 739.826 634.707C737.645 634.707 735.899 634.346 734.587 633.624C733.275 632.887 732.266 632.055 731.558 631.126C730.851 630.183 730.306 629.402 729.923 628.783H729.48V646.733H724.263ZM729.392 617.022C729.392 619.587 729.768 621.849 730.519 623.809C731.271 625.754 732.369 627.28 733.813 628.385C735.258 629.476 737.026 630.021 739.119 630.021C741.3 630.021 743.12 629.446 744.579 628.297C746.053 627.132 747.158 625.57 747.895 623.61C748.647 621.635 749.022 619.439 749.022 617.022C749.022 614.635 748.654 612.483 747.917 610.567C747.195 608.637 746.097 607.111 744.623 605.991C743.164 604.857 741.329 604.289 739.119 604.289C736.997 604.289 735.213 604.827 733.769 605.903C732.325 606.964 731.234 608.453 730.497 610.368C729.76 612.27 729.392 614.488 729.392 617.022ZM772.19 634.796C770.038 634.796 768.085 634.391 766.331 633.58C764.578 632.755 763.185 631.568 762.153 630.021C761.122 628.459 760.606 626.572 760.606 624.362C760.606 622.416 760.989 620.839 761.755 619.631C762.522 618.408 763.546 617.45 764.828 616.757C766.11 616.064 767.525 615.549 769.073 615.21C770.635 614.856 772.204 614.576 773.781 614.37C775.845 614.104 777.517 613.905 778.799 613.773C780.096 613.625 781.039 613.382 781.629 613.043C782.233 612.704 782.535 612.115 782.535 611.275V611.098C782.535 608.917 781.938 607.222 780.745 606.014C779.566 604.805 777.775 604.201 775.373 604.201C772.882 604.201 770.93 604.746 769.515 605.837C768.1 606.927 767.105 608.092 766.53 609.329L761.579 607.561C762.463 605.498 763.642 603.891 765.116 602.742C766.604 601.578 768.225 600.767 769.979 600.31C771.747 599.839 773.487 599.603 775.196 599.603C776.287 599.603 777.539 599.735 778.954 600.001C780.384 600.251 781.762 600.774 783.088 601.57C784.429 602.366 785.542 603.567 786.426 605.173C787.31 606.78 787.752 608.932 787.752 611.629V634H782.535V629.402H782.27C781.916 630.139 781.327 630.927 780.502 631.767C779.676 632.607 778.578 633.322 777.208 633.912C775.837 634.501 774.164 634.796 772.19 634.796ZM772.985 630.109C775.049 630.109 776.788 629.704 778.203 628.893C779.632 628.083 780.708 627.037 781.43 625.754C782.167 624.472 782.535 623.124 782.535 621.709V616.934C782.314 617.199 781.828 617.442 781.076 617.664C780.339 617.87 779.485 618.054 778.512 618.216C777.554 618.364 776.618 618.496 775.705 618.614C774.806 618.717 774.076 618.806 773.516 618.879C772.16 619.056 770.893 619.344 769.714 619.741C768.549 620.125 767.606 620.707 766.884 621.488C766.177 622.254 765.823 623.301 765.823 624.627C765.823 626.44 766.494 627.81 767.835 628.739C769.191 629.652 770.907 630.109 772.985 630.109ZM802.492 613.574V634H797.275V600.045H802.315V605.35H802.757C803.553 603.626 804.761 602.241 806.382 601.194C808.004 600.133 810.096 599.603 812.661 599.603C814.96 599.603 816.971 600.074 818.696 601.018C820.42 601.946 821.761 603.361 822.719 605.262C823.677 607.148 824.156 609.536 824.156 612.424V634H818.939V612.778C818.939 610.111 818.246 608.033 816.861 606.544C815.475 605.041 813.574 604.289 811.157 604.289C809.492 604.289 808.004 604.65 806.692 605.372C805.395 606.095 804.371 607.148 803.619 608.534C802.868 609.919 802.492 611.599 802.492 613.574ZM833.689 634V600.045H838.906V634H833.689ZM836.342 594.386C835.325 594.386 834.448 594.039 833.711 593.347C832.989 592.654 832.628 591.821 832.628 590.849C832.628 589.876 832.989 589.043 833.711 588.351C834.448 587.658 835.325 587.312 836.342 587.312C837.359 587.312 838.228 587.658 838.95 588.351C839.687 589.043 840.056 589.876 840.056 590.849C840.056 591.821 839.687 592.654 838.95 593.347C838.228 594.039 837.359 594.386 836.342 594.386ZM862.256 634.707C859.19 634.707 856.501 633.978 854.187 632.519C851.888 631.06 850.09 629.019 848.793 626.395C847.511 623.772 846.87 620.707 846.87 617.199C846.87 613.662 847.511 610.575 848.793 607.937C850.09 605.299 851.888 603.25 854.187 601.791C856.501 600.332 859.19 599.603 862.256 599.603C865.321 599.603 868.003 600.332 870.303 601.791C872.616 603.25 874.414 605.299 875.696 607.937C876.993 610.575 877.642 613.662 877.642 617.199C877.642 620.707 876.993 623.772 875.696 626.395C874.414 629.019 872.616 631.06 870.303 632.519C868.003 633.978 865.321 634.707 862.256 634.707ZM862.256 630.021C864.584 630.021 866.5 629.424 868.003 628.23C869.507 627.037 870.619 625.467 871.342 623.522C872.064 621.576 872.425 619.469 872.425 617.199C872.425 614.93 872.064 612.815 871.342 610.855C870.619 608.895 869.507 607.31 868.003 606.102C866.5 604.893 864.584 604.289 862.256 604.289C859.927 604.289 858.011 604.893 856.508 606.102C855.005 607.31 853.892 608.895 853.17 610.855C852.448 612.815 852.087 614.93 852.087 617.199C852.087 619.469 852.448 621.576 853.17 623.522C853.892 625.467 855.005 627.037 856.508 628.23C858.011 629.424 859.927 630.021 862.256 630.021ZM890.823 613.574V634H885.606V600.045H890.646V605.35H891.088C891.884 603.626 893.092 602.241 894.713 601.194C896.334 600.133 898.427 599.603 900.992 599.603C903.291 599.603 905.302 600.074 907.026 601.018C908.751 601.946 910.092 603.361 911.05 605.262C912.008 607.148 912.487 609.536 912.487 612.424V634H907.27V612.778C907.27 610.111 906.577 608.033 905.192 606.544C903.806 605.041 901.905 604.289 899.488 604.289C897.823 604.289 896.334 604.65 895.023 605.372C893.726 606.095 892.702 607.148 891.95 608.534C891.198 609.919 890.823 611.599 890.823 613.574Z" fill="#7B4425"/>
</svg>
