<svg width="130" height="120" viewBox="0 0 130 120" fill="none" xmlns="http://www.w3.org/2000/svg">
<path d="M15.5834 75.403C11.2973 75.403 7.94524 74.1108 5.52712 71.5264C3.1218 68.9419 1.91914 65.4043 1.91914 60.9135C1.91914 58.0604 2.48209 55.5527 3.60798 53.3905C4.73388 51.2155 6.39073 49.5202 8.57855 48.3048C10.7664 47.0893 13.3508 46.4816 16.3319 46.4816C19.7479 46.4816 22.6778 47.2173 25.1215 48.6886L23.4327 52.5653C21.1041 51.3114 18.7692 50.6845 16.4278 50.6845C13.5875 50.6845 11.3549 51.6057 9.73004 53.4481C8.10517 55.2904 7.29273 57.7981 7.29273 60.9711C7.29273 64.1185 8.01561 66.607 9.46136 68.4365C10.9071 70.2661 13.0246 71.1809 15.8137 71.1809C17.6049 71.1809 19.2298 70.8994 20.6883 70.3365V63.8114H14.7966L14.8349 59.7236H25.5821V73.292C23.8421 74.0084 22.1917 74.5394 20.6308 74.8849C19.0826 75.2303 17.4002 75.403 15.5834 75.403ZM31.1668 75V46.8846H36.3677V70.8547H48.132L47.9785 75H31.1668ZM51.74 75V46.8846H68.782L68.5709 51.0108H56.9409V58.2651H67.9951V62.3913H56.9409V70.8547H68.9931L68.8203 75H51.74ZM70.7587 75L81.1028 46.8654H86.7643L96.9549 75H91.6197L88.837 67.0548H78.9918L76.1898 75H70.7587ZM80.2968 63.1781H87.5128C85.2098 55.7958 84.0263 51.9831 83.9624 51.74L80.2968 63.1781ZM99.7569 75V46.8846H105.284C106.282 48.4455 108.31 51.5929 111.368 56.3268C114.425 61.0606 116.287 63.9394 116.952 64.9629C117.144 65.2572 117.471 65.7561 117.931 66.4598C118.405 67.1507 118.737 67.6433 118.929 67.9376C118.84 63.5491 118.795 61.2718 118.795 61.1054V46.8846H123.535V75H117.931L105.246 55.2329L104.324 53.7167C104.427 57.0944 104.478 59.4678 104.478 60.8368V75H99.7569Z" fill="#95C22B"/>
<path d="M13.1202 84.732C11.6159 84.732 10.3188 85.0968 9.22883 85.8265C8.14789 86.5561 7.34168 87.538 6.81021 88.772C6.27875 90.0061 6.01302 91.4249 6.01302 93.0283C6.01302 94.2263 6.15714 95.3208 6.4454 96.3116C6.73365 97.2935 7.16603 98.1583 7.74253 98.9059C8.31904 99.6446 9.06669 100.221 9.9855 100.635C10.9133 101.041 11.9762 101.243 13.1743 101.243C14.7146 101.243 16.309 100.843 17.9575 100.041L18.3493 102.027C17.0071 102.874 15.1921 103.297 12.9041 103.297C11.3997 103.297 10.0486 103.05 8.8505 102.554C7.66146 102.05 6.6751 101.343 5.89141 100.433C5.11673 99.5139 4.52671 98.424 4.12136 97.1629C3.716 95.8928 3.51333 94.483 3.51333 92.9337C3.51333 91.4384 3.73402 90.0602 4.17541 88.7991C4.61679 87.538 5.23834 86.457 6.04004 85.5562C6.85075 84.6464 7.85963 83.9393 9.06669 83.4349C10.2737 82.9304 11.6159 82.6782 13.0932 82.6782C15.3362 82.6782 17.2278 83.1736 18.7682 84.1645L17.8494 86.0697C16.3721 85.1779 14.7957 84.732 13.1202 84.732ZM23.0109 95.6225C23.0109 97.3791 23.3982 98.7888 24.1729 99.8517C24.9566 100.906 26.0961 101.433 27.5914 101.433C29.0687 101.433 30.1812 100.906 30.9288 99.8517C31.6855 98.7978 32.0638 97.3791 32.0638 95.5955C32.0638 93.7849 31.69 92.3617 30.9424 91.3258C30.2037 90.2809 29.0732 89.7584 27.5509 89.7584C26.0736 89.7584 24.9476 90.2899 24.1729 91.3528C23.3982 92.4157 23.0109 93.839 23.0109 95.6225ZM34.4014 95.582C34.4014 97.879 33.7889 99.7436 32.5638 101.176C31.3387 102.599 29.6452 103.311 27.4833 103.311C25.4025 103.311 23.7451 102.59 22.511 101.149C21.2859 99.7076 20.6734 97.8565 20.6734 95.5955C20.6734 93.2895 21.2904 91.4249 22.5245 90.0016C23.7586 88.5784 25.452 87.8667 27.6049 87.8667C29.7218 87.8667 31.3837 88.5829 32.5908 90.0151C33.7979 91.4384 34.4014 93.294 34.4014 95.582ZM39.2521 95.6225C39.2521 97.3791 39.6395 98.7888 40.4142 99.8517C41.1978 100.906 42.3373 101.433 43.8327 101.433C45.3099 101.433 46.4224 100.906 47.1701 99.8517C47.9267 98.7978 48.3051 97.3791 48.3051 95.5955C48.3051 93.7849 47.9312 92.3617 47.1836 91.3258C46.4449 90.2809 45.3145 89.7584 43.7921 89.7584C42.3148 89.7584 41.1888 90.2899 40.4142 91.3528C39.6395 92.4157 39.2521 93.839 39.2521 95.6225ZM50.6426 95.582C50.6426 97.879 50.0301 99.7436 48.805 101.176C47.5799 102.599 45.8865 103.311 43.7246 103.311C41.6437 103.311 39.9863 102.59 38.7522 101.149C37.5271 99.7076 36.9146 97.8565 36.9146 95.5955C36.9146 93.2895 37.5316 91.4249 38.7657 90.0016C39.9998 88.5784 41.6933 87.8667 43.8462 87.8667C45.963 87.8667 47.625 88.5829 48.832 90.0151C50.0391 91.4384 50.6426 93.294 50.6426 95.582ZM53.872 103V82.4215L56.1149 82.2864V93.0553V94.9469C56.169 94.8929 56.25 94.8028 56.3581 94.6767C56.4662 94.5506 56.5518 94.456 56.6149 94.393C57.3985 93.5372 59.4253 91.4654 62.6952 88.1775H65.5597L59.3983 94.42L65.9921 103H63.1816L57.7634 95.7036L56.1149 97.1223V103H53.872ZM70.6807 93.4877V101.081H74.8558C76.5493 101.081 77.8194 100.771 78.6662 100.149C79.5129 99.5184 79.9363 98.5411 79.9363 97.2169C79.9363 95.8387 79.4769 94.8749 78.5581 94.3254C77.6483 93.7669 76.225 93.4877 74.2883 93.4877H70.6807ZM70.6807 91.6095H74.9639C76.3602 91.6095 77.4141 91.3663 78.1257 90.8799C78.8373 90.3935 79.1931 89.5287 79.1931 88.2856C79.1931 87.0335 78.7653 86.1733 77.9095 85.7048C77.0628 85.2274 75.7431 84.9887 73.9505 84.9887H70.6807V91.6095ZM68.3431 83.016H74.0721C76.6394 83.016 78.5401 83.4078 79.7741 84.1915C81.0172 84.9752 81.6388 86.2228 81.6388 87.9343C81.6388 88.1865 81.6208 88.4387 81.5847 88.691C81.5577 88.9342 81.4766 89.2495 81.3415 89.6368C81.2154 90.0241 81.0398 90.3799 80.8146 90.7042C80.5894 91.0195 80.2561 91.3393 79.8147 91.6636C79.3823 91.9788 78.8734 92.2311 78.2878 92.4202C79.63 92.6725 80.6479 93.2399 81.3415 94.1227C82.0351 95.0055 82.3819 96.0684 82.3819 97.3115C82.3819 99.1221 81.7874 100.523 80.5984 101.514C79.4183 102.505 77.6573 103 75.3152 103H68.3431V83.016ZM86.9489 95.6225C86.9489 97.3791 87.3363 98.7888 88.1109 99.8517C88.8946 100.906 90.0341 101.433 91.5294 101.433C93.0067 101.433 94.1192 100.906 94.8669 99.8517C95.6235 98.7978 96.0019 97.3791 96.0019 95.5955C96.0019 93.7849 95.628 92.3617 94.8804 91.3258C94.1417 90.2809 93.0112 89.7584 91.4889 89.7584C90.0116 89.7584 88.8856 90.2899 88.1109 91.3528C87.3363 92.4157 86.9489 93.839 86.9489 95.6225ZM98.3394 95.582C98.3394 97.879 97.7269 99.7436 96.5018 101.176C95.2767 102.599 93.5832 103.311 91.4213 103.311C89.3405 103.311 87.6831 102.59 86.449 101.149C85.2239 99.7076 84.6114 97.8565 84.6114 95.5955C84.6114 93.2895 85.2284 91.4249 86.4625 90.0016C87.6966 88.5784 89.3901 87.8667 91.543 87.8667C93.6598 87.8667 95.3218 88.5829 96.5288 90.0151C97.7359 91.4384 98.3394 93.294 98.3394 95.582ZM103.19 95.6225C103.19 97.3791 103.578 98.7888 104.352 99.8517C105.136 100.906 106.275 101.433 107.771 101.433C109.248 101.433 110.36 100.906 111.108 99.8517C111.865 98.7978 112.243 97.3791 112.243 95.5955C112.243 93.7849 111.869 92.3617 111.122 91.3258C110.383 90.2809 109.252 89.7584 107.73 89.7584C106.253 89.7584 105.127 90.2899 104.352 91.3528C103.578 92.4157 103.19 93.839 103.19 95.6225ZM114.581 95.582C114.581 97.879 113.968 99.7436 112.743 101.176C111.518 102.599 109.824 103.311 107.663 103.311C105.582 103.311 103.924 102.59 102.69 101.149C101.465 99.7076 100.853 97.8565 100.853 95.5955C100.853 93.2895 101.47 91.4249 102.704 90.0016C103.938 88.5784 105.631 87.8667 107.784 87.8667C109.901 87.8667 111.563 88.5829 112.77 90.0151C113.977 91.4384 114.581 93.294 114.581 95.582ZM117.81 103V82.4215L120.053 82.2864V93.0553V94.9469C120.107 94.8929 120.188 94.8028 120.296 94.6767C120.404 94.5506 120.49 94.456 120.553 94.393C121.337 93.5372 123.363 91.4654 126.633 88.1775H129.498L123.336 94.42L129.93 103H127.12L121.701 95.7036L120.053 97.1223V103H117.81Z" fill="#7B4425"/>
<path d="M9.07893 119.689C8.96165 119.689 8.85708 119.679 8.76522 119.659C8.67335 119.642 8.60983 119.624 8.57464 119.607L8.75056 118.997C8.91865 119.04 9.0672 119.055 9.1962 119.044C9.3252 119.032 9.43954 118.974 9.53923 118.871C9.64087 118.769 9.73371 118.604 9.81775 118.375L9.94676 118.023L8.28146 113.497H9.03202L10.2751 117.085H10.322L11.5651 113.497H12.3157L10.4041 118.657C10.3181 118.889 10.2116 119.082 10.0846 119.234C9.95751 119.389 9.80994 119.503 9.64184 119.577C9.4757 119.652 9.28806 119.689 9.07893 119.689ZM14.8972 118.094C14.4907 118.094 14.1339 117.997 13.8271 117.804C13.5222 117.61 13.2837 117.339 13.1117 116.991C12.9417 116.644 12.8566 116.237 12.8566 115.772C12.8566 115.303 12.9417 114.893 13.1117 114.543C13.2837 114.193 13.5222 113.922 13.8271 113.728C14.1339 113.535 14.4907 113.438 14.8972 113.438C15.3038 113.438 15.6595 113.535 15.9644 113.728C16.2713 113.922 16.5097 114.193 16.6798 114.543C16.8518 114.893 16.9378 115.303 16.9378 115.772C16.9378 116.237 16.8518 116.644 16.6798 116.991C16.5097 117.339 16.2713 117.61 15.9644 117.804C15.6595 117.997 15.3038 118.094 14.8972 118.094ZM14.8972 117.472C15.206 117.472 15.4601 117.393 15.6595 117.235C15.8589 117.076 16.0064 116.868 16.1022 116.61C16.198 116.352 16.2459 116.073 16.2459 115.772C16.2459 115.471 16.198 115.19 16.1022 114.93C16.0064 114.67 15.8589 114.46 15.6595 114.3C15.4601 114.14 15.206 114.06 14.8972 114.06C14.5884 114.06 14.3343 114.14 14.1349 114.3C13.9356 114.46 13.788 114.67 13.6922 114.93C13.5964 115.19 13.5485 115.471 13.5485 115.772C13.5485 116.073 13.5964 116.352 13.6922 116.61C13.788 116.868 13.9356 117.076 14.1349 117.235C14.3343 117.393 14.5884 117.472 14.8972 117.472ZM20.832 116.159V113.497H21.5239V118H20.832V117.238H20.7851C20.6796 117.466 20.5154 117.661 20.2926 117.821C20.0697 117.979 19.7883 118.059 19.4482 118.059C19.1667 118.059 18.9165 117.997 18.6976 117.874C18.4787 117.749 18.3067 117.561 18.1816 117.311C18.0565 117.059 17.994 116.741 17.994 116.358V113.497H18.6859V116.311C18.6859 116.64 18.7778 116.902 18.9615 117.097C19.1472 117.292 19.3837 117.39 19.671 117.39C19.843 117.39 20.0179 117.346 20.1958 117.258C20.3756 117.17 20.5261 117.035 20.6473 116.854C20.7705 116.672 20.832 116.44 20.832 116.159ZM22.7912 118V113.497H23.4597V114.177H23.5066C23.5887 113.954 23.7373 113.773 23.9523 113.634C24.1673 113.496 24.4096 113.426 24.6794 113.426C24.7302 113.426 24.7937 113.427 24.8699 113.429C24.9462 113.431 25.0038 113.434 25.0429 113.438V114.142C25.0195 114.136 24.9657 114.127 24.8817 114.115C24.7996 114.102 24.7126 114.095 24.6207 114.095C24.4018 114.095 24.2064 114.141 24.0344 114.233C23.8643 114.322 23.7294 114.448 23.6298 114.608C23.532 114.766 23.4832 114.947 23.4832 115.15V118H22.7912ZM30.0029 119.783C29.6687 119.783 29.3813 119.74 29.1409 119.654C28.9005 119.57 28.7002 119.458 28.5399 119.319C28.3816 119.183 28.2555 119.036 28.1617 118.88L28.7129 118.493C28.7754 118.575 28.8546 118.668 28.9504 118.774C29.0461 118.882 29.1771 118.974 29.3432 119.053C29.5113 119.133 29.7312 119.173 30.0029 119.173C30.3664 119.173 30.6665 119.085 30.903 118.909C31.1395 118.733 31.2577 118.457 31.2577 118.082V117.167H31.1991C31.1483 117.249 31.076 117.351 30.9821 117.472C30.8903 117.591 30.7574 117.698 30.5834 117.792C30.4114 117.884 30.1788 117.93 29.8856 117.93C29.5221 117.93 29.1957 117.844 28.9064 117.672C28.6191 117.5 28.3913 117.249 28.2232 116.921C28.0571 116.593 27.974 116.194 27.974 115.725C27.974 115.264 28.0552 114.862 28.2174 114.52C28.3796 114.176 28.6054 113.91 28.8946 113.722C29.1839 113.533 29.5182 113.438 29.8973 113.438C30.1905 113.438 30.4231 113.487 30.5951 113.585C30.7691 113.68 30.902 113.79 30.9939 113.913C31.0877 114.034 31.16 114.134 31.2108 114.212H31.2812V113.497H31.9496V118.129C31.9496 118.516 31.8617 118.831 31.6858 119.073C31.5118 119.317 31.2773 119.496 30.9821 119.61C30.6889 119.725 30.3625 119.783 30.0029 119.783ZM29.9794 117.308C30.257 117.308 30.4915 117.245 30.6831 117.118C30.8746 116.99 31.0202 116.808 31.1199 116.569C31.2196 116.331 31.2695 116.045 31.2695 115.713C31.2695 115.389 31.2206 115.102 31.1229 114.854C31.0251 114.606 30.8805 114.411 30.6889 114.271C30.4974 114.13 30.2609 114.06 29.9794 114.06C29.6862 114.06 29.4419 114.134 29.2465 114.282C29.053 114.431 28.9074 114.63 28.8096 114.88C28.7138 115.131 28.666 115.408 28.666 115.713C28.666 116.026 28.7148 116.302 28.8126 116.543C28.9122 116.781 29.0588 116.969 29.2523 117.106C29.4478 117.241 29.6902 117.308 29.9794 117.308ZM33.9081 111.996V118H33.2162V111.996H33.9081ZM37.0635 118.094C36.6296 118.094 36.2553 117.998 35.9406 117.806C35.6279 117.613 35.3865 117.343 35.2165 116.997C35.0484 116.649 34.9643 116.245 34.9643 115.784C34.9643 115.322 35.0484 114.916 35.2165 114.564C35.3865 114.21 35.623 113.934 35.926 113.737C36.2309 113.538 36.5866 113.438 36.9932 113.438C37.2277 113.438 37.4593 113.477 37.688 113.555C37.9167 113.633 38.1249 113.761 38.3125 113.936C38.5002 114.11 38.6497 114.341 38.7611 114.628C38.8725 114.916 38.9282 115.269 38.9282 115.69V115.983H35.4569V115.385H38.2246C38.2246 115.131 38.1737 114.904 38.0721 114.705C37.9724 114.505 37.8297 114.348 37.6441 114.233C37.4603 114.117 37.2434 114.06 36.9932 114.06C36.7176 114.06 36.4791 114.128 36.2778 114.265C36.0784 114.4 35.925 114.576 35.8175 114.793C35.71 115.01 35.6563 115.242 35.6563 115.49V115.889C35.6563 116.229 35.7149 116.517 35.8322 116.754C35.9514 116.989 36.1166 117.167 36.3276 117.29C36.5387 117.412 36.784 117.472 37.0635 117.472C37.2453 117.472 37.4095 117.447 37.5561 117.396C37.7046 117.343 37.8327 117.265 37.9402 117.161C38.0477 117.056 38.1307 116.925 38.1894 116.769L38.8578 116.956C38.7875 117.183 38.6692 117.382 38.5031 117.554C38.3369 117.724 38.1317 117.857 37.8874 117.953C37.6431 118.047 37.3685 118.094 37.0635 118.094ZM41.3059 118.106C41.0206 118.106 40.7616 118.052 40.529 117.944C40.2964 117.835 40.1117 117.677 39.9749 117.472C39.8381 117.265 39.7697 117.015 39.7697 116.722C39.7697 116.464 39.8205 116.255 39.9221 116.094C40.0237 115.932 40.1596 115.805 40.3296 115.713C40.4997 115.621 40.6873 115.553 40.8926 115.508C41.0997 115.461 41.3079 115.424 41.517 115.397C41.7907 115.361 42.0125 115.335 42.1826 115.317C42.3546 115.298 42.4797 115.266 42.5579 115.221C42.638 115.176 42.6781 115.097 42.6781 114.986V114.963C42.6781 114.673 42.5989 114.449 42.4406 114.288C42.2842 114.128 42.0467 114.048 41.7281 114.048C41.3978 114.048 41.1388 114.12 40.9512 114.265C40.7636 114.409 40.6316 114.564 40.5554 114.728L39.8987 114.493C40.0159 114.22 40.1723 114.007 40.3678 113.854C40.5652 113.7 40.7802 113.592 41.0128 113.532C41.2473 113.469 41.478 113.438 41.7047 113.438C41.8493 113.438 42.0155 113.456 42.2031 113.491C42.3927 113.524 42.5754 113.593 42.7514 113.699C42.9292 113.805 43.0768 113.964 43.1941 114.177C43.3113 114.39 43.37 114.675 43.37 115.033V118H42.6781V117.39H42.6429C42.596 117.488 42.5178 117.592 42.4083 117.704C42.2989 117.815 42.1533 117.91 41.9715 117.988C41.7897 118.066 41.5679 118.106 41.3059 118.106ZM41.4115 117.484C41.6851 117.484 41.9158 117.43 42.1034 117.323C42.293 117.215 42.4357 117.076 42.5315 116.906C42.6292 116.736 42.6781 116.558 42.6781 116.37V115.737C42.6487 115.772 42.5842 115.804 42.4846 115.833C42.3868 115.861 42.2735 115.885 42.1445 115.907C42.0174 115.926 41.8933 115.944 41.7721 115.959C41.6529 115.973 41.5561 115.985 41.4819 115.995C41.302 116.018 41.1339 116.056 40.9776 116.109C40.8232 116.16 40.6981 116.237 40.6023 116.341C40.5085 116.442 40.4616 116.581 40.4616 116.757C40.4616 116.997 40.5505 117.179 40.7284 117.302C40.9082 117.423 41.1359 117.484 41.4115 117.484ZM45.3248 115.291V118H44.6329V113.497H45.3013V114.2H45.36C45.4655 113.972 45.6258 113.788 45.8408 113.649C46.0558 113.508 46.3334 113.438 46.6735 113.438C46.9784 113.438 47.2452 113.501 47.4739 113.626C47.7025 113.749 47.8804 113.936 48.0075 114.189C48.1345 114.439 48.198 114.755 48.198 115.139V118H47.5061V115.185C47.5061 114.832 47.4142 114.556 47.2305 114.359C47.0468 114.159 46.7946 114.06 46.4741 114.06C46.2532 114.06 46.0558 114.107 45.8819 114.203C45.7098 114.299 45.574 114.439 45.4743 114.622C45.3746 114.806 45.3248 115.029 45.3248 115.291ZM51.7844 119.689V113.497H52.4529V114.212H52.535C52.5858 114.134 52.6562 114.034 52.7461 113.913C52.8379 113.79 52.9689 113.68 53.1389 113.585C53.3109 113.487 53.5435 113.438 53.8367 113.438C54.2159 113.438 54.5501 113.533 54.8394 113.722C55.1287 113.912 55.3545 114.181 55.5167 114.529C55.6789 114.877 55.76 115.287 55.76 115.76C55.76 116.237 55.6789 116.65 55.5167 117C55.3545 117.348 55.1297 117.618 54.8424 117.809C54.555 117.999 54.2237 118.094 53.8485 118.094C53.5592 118.094 53.3276 118.046 53.1536 117.95C52.9796 117.852 52.8458 117.742 52.7519 117.619C52.6581 117.494 52.5858 117.39 52.535 117.308H52.4763V119.689H51.7844ZM52.4646 115.748C52.4646 116.088 52.5145 116.388 52.6141 116.648C52.7138 116.906 52.8594 117.109 53.051 117.255C53.2425 117.4 53.4771 117.472 53.7546 117.472C54.0439 117.472 54.2853 117.396 54.4788 117.244C54.6743 117.089 54.8209 116.882 54.9186 116.622C55.0183 116.36 55.0681 116.069 55.0681 115.748C55.0681 115.432 55.0192 115.146 54.9215 114.892C54.8257 114.636 54.6801 114.434 54.4847 114.285C54.2912 114.135 54.0478 114.06 53.7546 114.06C53.4732 114.06 53.2367 114.131 53.0451 114.274C52.8536 114.414 52.7089 114.612 52.6112 114.866C52.5135 115.118 52.4646 115.412 52.4646 115.748ZM56.8155 118V113.497H57.484V114.177H57.5309C57.613 113.954 57.7615 113.773 57.9765 113.634C58.1915 113.496 58.4339 113.426 58.7036 113.426C58.7544 113.426 58.818 113.427 58.8942 113.429C58.9704 113.431 59.0281 113.434 59.0672 113.438V114.142C59.0437 114.136 58.99 114.127 58.9059 114.115C58.8238 114.102 58.7368 114.095 58.645 114.095C58.4261 114.095 58.2306 114.141 58.0586 114.233C57.8886 114.322 57.7537 114.448 57.654 114.608C57.5563 114.766 57.5074 114.947 57.5074 115.15V118H56.8155ZM61.5798 118.094C61.1732 118.094 60.8165 117.997 60.5096 117.804C60.2047 117.61 59.9663 117.339 59.7943 116.991C59.6242 116.644 59.5392 116.237 59.5392 115.772C59.5392 115.303 59.6242 114.893 59.7943 114.543C59.9663 114.193 60.2047 113.922 60.5096 113.728C60.8165 113.535 61.1732 113.438 61.5798 113.438C61.9863 113.438 62.3421 113.535 62.647 113.728C62.9538 113.922 63.1923 114.193 63.3623 114.543C63.5343 114.893 63.6203 115.303 63.6203 115.772C63.6203 116.237 63.5343 116.644 63.3623 116.991C63.1923 117.339 62.9538 117.61 62.647 117.804C62.3421 117.997 61.9863 118.094 61.5798 118.094ZM61.5798 117.472C61.8886 117.472 62.1427 117.393 62.3421 117.235C62.5414 117.076 62.689 116.868 62.7848 116.61C62.8805 116.352 62.9284 116.073 62.9284 115.772C62.9284 115.471 62.8805 115.19 62.7848 114.93C62.689 114.67 62.5414 114.46 62.3421 114.3C62.1427 114.14 61.8886 114.06 61.5798 114.06C61.2709 114.06 61.0169 114.14 60.8175 114.3C60.6181 114.46 60.4706 114.67 60.3748 114.93C60.279 115.19 60.2311 115.471 60.2311 115.772C60.2311 116.073 60.279 116.352 60.3748 116.61C60.4706 116.868 60.6181 117.076 60.8175 117.235C61.0169 117.393 61.2709 117.472 61.5798 117.472ZM64.6766 113.497H65.3685V118.328C65.3685 118.606 65.3206 118.846 65.2248 119.05C65.131 119.253 64.9883 119.41 64.7968 119.522C64.6072 119.633 64.3677 119.689 64.0785 119.689C64.055 119.689 64.0315 119.689 64.0081 119.689C63.9846 119.689 63.9612 119.689 63.9377 119.689V119.044C63.9612 119.044 63.9827 119.044 64.0022 119.044C64.0218 119.044 64.0433 119.044 64.0667 119.044C64.2778 119.044 64.4322 118.981 64.53 118.856C64.6277 118.733 64.6766 118.557 64.6766 118.328V113.497ZM65.0166 112.746C64.8818 112.746 64.7655 112.7 64.6678 112.608C64.572 112.516 64.5241 112.406 64.5241 112.277C64.5241 112.148 64.572 112.038 64.6678 111.946C64.7655 111.854 64.8818 111.808 65.0166 111.808C65.1515 111.808 65.2668 111.854 65.3626 111.946C65.4603 112.038 65.5092 112.148 65.5092 112.277C65.5092 112.406 65.4603 112.516 65.3626 112.608C65.2668 112.7 65.1515 112.746 65.0166 112.746ZM68.5239 118.094C68.09 118.094 67.7157 117.998 67.401 117.806C67.0882 117.613 66.8469 117.343 66.6768 116.997C66.5087 116.649 66.4247 116.245 66.4247 115.784C66.4247 115.322 66.5087 114.916 66.6768 114.564C66.8469 114.21 67.0834 113.934 67.3863 113.737C67.6912 113.538 68.047 113.438 68.4535 113.438C68.6881 113.438 68.9197 113.477 69.1484 113.555C69.3771 113.633 69.5852 113.761 69.7729 113.936C69.9605 114.11 70.11 114.341 70.2214 114.628C70.3328 114.916 70.3885 115.269 70.3885 115.69V115.983H66.9172V115.385H69.6849C69.6849 115.131 69.6341 114.904 69.5324 114.705C69.4328 114.505 69.2901 114.348 69.1044 114.233C68.9207 114.117 68.7037 114.06 68.4535 114.06C68.1779 114.06 67.9395 114.128 67.7381 114.265C67.5388 114.4 67.3853 114.576 67.2778 114.793C67.1703 115.01 67.1166 115.242 67.1166 115.49V115.889C67.1166 116.229 67.1752 116.517 67.2925 116.754C67.4117 116.989 67.5769 117.167 67.788 117.29C67.9991 117.412 68.2444 117.472 68.5239 117.472C68.7057 117.472 68.8698 117.447 69.0164 117.396C69.165 117.343 69.293 117.265 69.4005 117.161C69.508 117.056 69.5911 116.925 69.6497 116.769L70.3182 116.956C70.2478 117.183 70.1296 117.382 69.9634 117.554C69.7973 117.724 69.5921 117.857 69.3477 117.953C69.1034 118.047 68.8288 118.094 68.5239 118.094ZM73.2706 118.094C72.8484 118.094 72.4848 117.994 72.1799 117.795C71.875 117.595 71.6405 117.321 71.4763 116.971C71.3121 116.621 71.23 116.221 71.23 115.772C71.23 115.314 71.314 114.911 71.4821 114.561C71.6522 114.209 71.8887 113.934 72.1916 113.737C72.4966 113.538 72.8523 113.438 73.2588 113.438C73.5755 113.438 73.8609 113.497 74.1149 113.614C74.369 113.731 74.5772 113.895 74.7394 114.106C74.9017 114.318 75.0023 114.564 75.0414 114.845H74.3495C74.2967 114.64 74.1794 114.458 73.9977 114.3C73.8179 114.14 73.5755 114.06 73.2706 114.06C73.0008 114.06 72.7643 114.13 72.5611 114.271C72.3597 114.409 72.2024 114.606 72.089 114.86C71.9776 115.112 71.9219 115.408 71.9219 115.748C71.9219 116.096 71.9766 116.399 72.0861 116.657C72.1975 116.915 72.3539 117.116 72.5552 117.258C72.7585 117.401 72.9969 117.472 73.2706 117.472C73.4504 117.472 73.6136 117.441 73.7602 117.378C73.9068 117.316 74.0309 117.226 74.1325 117.109C74.2342 116.991 74.3065 116.851 74.3495 116.687H75.0414C75.0023 116.952 74.9056 117.192 74.7512 117.405C74.5987 117.616 74.3964 117.784 74.1443 117.909C73.8941 118.032 73.6028 118.094 73.2706 118.094ZM78.0114 113.497V114.083H75.6776V113.497H78.0114ZM76.3578 112.418H77.0497V116.71C77.0497 116.905 77.0781 117.052 77.1348 117.15C77.1934 117.246 77.2677 117.31 77.3576 117.343C77.4495 117.375 77.5462 117.39 77.6478 117.39C77.7241 117.39 77.7866 117.386 77.8355 117.378C77.8843 117.369 77.9234 117.361 77.9528 117.355L78.0935 117.977C78.0466 117.994 77.9811 118.012 77.897 118.029C77.813 118.049 77.7065 118.059 77.5775 118.059C77.382 118.059 77.1905 118.017 77.0028 117.933C76.8171 117.849 76.6627 117.72 76.5396 117.548C76.4184 117.376 76.3578 117.16 76.3578 116.898V112.418ZM83.2037 118.094C82.7815 118.094 82.418 117.994 82.1131 117.795C81.8081 117.595 81.5736 117.321 81.4094 116.971C81.2452 116.621 81.1631 116.221 81.1631 115.772C81.1631 115.314 81.2472 114.911 81.4153 114.561C81.5853 114.209 81.8218 113.934 82.1248 113.737C82.4297 113.538 82.7854 113.438 83.192 113.438C83.5086 113.438 83.794 113.497 84.0481 113.614C84.3022 113.731 84.5103 113.895 84.6726 114.106C84.8348 114.318 84.9355 114.564 84.9746 114.845H84.2826C84.2299 114.64 84.1126 114.458 83.9308 114.3C83.751 114.14 83.5086 114.06 83.2037 114.06C82.934 114.06 82.6975 114.13 82.4942 114.271C82.2929 114.409 82.1355 114.606 82.0222 114.86C81.9108 115.112 81.8551 115.408 81.8551 115.748C81.8551 116.096 81.9098 116.399 82.0192 116.657C82.1307 116.915 82.287 117.116 82.4883 117.258C82.6916 117.401 82.9301 117.472 83.2037 117.472C83.3835 117.472 83.5467 117.441 83.6933 117.378C83.8399 117.316 83.964 117.226 84.0657 117.109C84.1673 116.991 84.2396 116.851 84.2826 116.687H84.9746C84.9355 116.952 84.8387 117.192 84.6843 117.405C84.5318 117.616 84.3296 117.784 84.0774 117.909C83.8272 118.032 83.536 118.094 83.2037 118.094ZM87.8155 118.094C87.409 118.094 87.0523 117.997 86.7454 117.804C86.4405 117.61 86.202 117.339 86.03 116.991C85.86 116.644 85.775 116.237 85.775 115.772C85.775 115.303 85.86 114.893 86.03 114.543C86.202 114.193 86.4405 113.922 86.7454 113.728C87.0523 113.535 87.409 113.438 87.8155 113.438C88.2221 113.438 88.5778 113.535 88.8827 113.728C89.1896 113.922 89.4281 114.193 89.5981 114.543C89.7701 114.893 89.8561 115.303 89.8561 115.772C89.8561 116.237 89.7701 116.644 89.5981 116.991C89.4281 117.339 89.1896 117.61 88.8827 117.804C88.5778 117.997 88.2221 118.094 87.8155 118.094ZM87.8155 117.472C88.1244 117.472 88.3784 117.393 88.5778 117.235C88.7772 117.076 88.9248 116.868 89.0205 116.61C89.1163 116.352 89.1642 116.073 89.1642 115.772C89.1642 115.471 89.1163 115.19 89.0205 114.93C88.9248 114.67 88.7772 114.46 88.5778 114.3C88.3784 114.14 88.1244 114.06 87.8155 114.06C87.5067 114.06 87.2526 114.14 87.0532 114.3C86.8539 114.46 86.7063 114.67 86.6105 114.93C86.5148 115.19 86.4669 115.471 86.4669 115.772C86.4669 116.073 86.5148 116.352 86.6105 116.61C86.7063 116.868 86.8539 117.076 87.0532 117.235C87.2526 117.393 87.5067 117.472 87.8155 117.472ZM90.9123 118V113.497H91.5808V114.2H91.6394C91.7332 113.96 91.8847 113.773 92.0939 113.64C92.303 113.505 92.5542 113.438 92.8473 113.438C93.1444 113.438 93.3917 113.505 93.5891 113.64C93.7885 113.773 93.9439 113.96 94.0553 114.2H94.1022C94.2175 113.968 94.3905 113.783 94.6211 113.646C94.8518 113.507 95.1283 113.438 95.4508 113.438C95.8535 113.438 96.1828 113.564 96.4389 113.816C96.6949 114.066 96.8229 114.456 96.8229 114.986V118H96.131V114.986C96.131 114.654 96.0401 114.416 95.8584 114.274C95.6766 114.131 95.4626 114.06 95.2163 114.06C94.8996 114.06 94.6543 114.155 94.4804 114.347C94.3064 114.536 94.2195 114.777 94.2195 115.068V118H93.5158V114.916C93.5158 114.66 93.4327 114.453 93.2666 114.297C93.1005 114.139 92.8864 114.06 92.6245 114.06C92.4447 114.06 92.2766 114.107 92.1202 114.203C91.9658 114.299 91.8407 114.432 91.745 114.602C91.6511 114.77 91.6042 114.965 91.6042 115.185V118H90.9123ZM98.088 119.689V113.497H98.7565V114.212H98.8386C98.8894 114.134 98.9598 114.034 99.0497 113.913C99.1416 113.79 99.2725 113.68 99.4426 113.585C99.6146 113.487 99.8472 113.438 100.14 113.438C100.52 113.438 100.854 113.533 101.143 113.722C101.432 113.912 101.658 114.181 101.82 114.529C101.983 114.877 102.064 115.287 102.064 115.76C102.064 116.237 101.983 116.65 101.82 117C101.658 117.348 101.433 117.618 101.146 117.809C100.859 117.999 100.527 118.094 100.152 118.094C99.8628 118.094 99.6312 118.046 99.4572 117.95C99.2833 117.852 99.1494 117.742 99.0556 117.619C98.9617 117.494 98.8894 117.39 98.8386 117.308H98.78V119.689H98.088ZM98.7682 115.748C98.7682 116.088 98.8181 116.388 98.9178 116.648C99.0174 116.906 99.1631 117.109 99.3546 117.255C99.5462 117.4 99.7807 117.472 100.058 117.472C100.348 117.472 100.589 117.396 100.782 117.244C100.978 117.089 101.124 116.882 101.222 116.622C101.322 116.36 101.372 116.069 101.372 115.748C101.372 115.432 101.323 115.146 101.225 114.892C101.129 114.636 100.984 114.434 100.788 114.285C100.595 114.135 100.351 114.06 100.058 114.06C99.7768 114.06 99.5403 114.131 99.3487 114.274C99.1572 114.414 99.0126 114.612 98.9148 114.866C98.8171 115.118 98.7682 115.412 98.7682 115.748ZM104.444 118.106C104.159 118.106 103.9 118.052 103.667 117.944C103.435 117.835 103.25 117.677 103.113 117.472C102.976 117.265 102.908 117.015 102.908 116.722C102.908 116.464 102.959 116.255 103.06 116.094C103.162 115.932 103.298 115.805 103.468 115.713C103.638 115.621 103.826 115.553 104.031 115.508C104.238 115.461 104.446 115.424 104.655 115.397C104.929 115.361 105.151 115.335 105.321 115.317C105.493 115.298 105.618 115.266 105.696 115.221C105.776 115.176 105.816 115.097 105.816 114.986V114.963C105.816 114.673 105.737 114.449 105.579 114.288C105.423 114.128 105.185 114.048 104.867 114.048C104.536 114.048 104.277 114.12 104.09 114.265C103.902 114.409 103.77 114.564 103.694 114.728L103.037 114.493C103.154 114.22 103.311 114.007 103.506 113.854C103.704 113.7 103.919 113.592 104.151 113.532C104.386 113.469 104.616 113.438 104.843 113.438C104.988 113.438 105.154 113.456 105.341 113.491C105.531 113.524 105.714 113.593 105.89 113.699C106.068 113.805 106.215 113.964 106.332 114.177C106.45 114.39 106.508 114.675 106.508 115.033V118H105.816V117.39H105.781C105.734 117.488 105.656 117.592 105.547 117.704C105.437 117.815 105.292 117.91 105.11 117.988C104.928 118.066 104.706 118.106 104.444 118.106ZM104.55 117.484C104.824 117.484 105.054 117.43 105.242 117.323C105.431 117.215 105.574 117.076 105.67 116.906C105.768 116.736 105.816 116.558 105.816 116.37V115.737C105.787 115.772 105.723 115.804 105.623 115.833C105.525 115.861 105.412 115.885 105.283 115.907C105.156 115.926 105.032 115.944 104.91 115.959C104.791 115.973 104.695 115.985 104.62 115.995C104.44 116.018 104.272 116.056 104.116 116.109C103.962 116.16 103.836 116.237 103.741 116.341C103.647 116.442 103.6 116.581 103.6 116.757C103.6 116.997 103.689 117.179 103.867 117.302C104.047 117.423 104.274 117.484 104.55 117.484ZM108.463 115.291V118H107.771V113.497H108.44V114.2H108.498C108.604 113.972 108.764 113.788 108.979 113.649C109.194 113.508 109.472 113.438 109.812 113.438C110.117 113.438 110.384 113.501 110.612 113.626C110.841 113.749 111.019 113.936 111.146 114.189C111.273 114.439 111.336 114.755 111.336 115.139V118H110.644V115.185C110.644 114.832 110.553 114.556 110.369 114.359C110.185 114.159 109.933 114.06 109.612 114.06C109.392 114.06 109.194 114.107 109.02 114.203C108.848 114.299 108.712 114.439 108.613 114.622C108.513 114.806 108.463 115.029 108.463 115.291ZM112.601 118V113.497H113.293V118H112.601ZM112.953 112.746C112.818 112.746 112.701 112.7 112.604 112.608C112.508 112.516 112.46 112.406 112.46 112.277C112.46 112.148 112.508 112.038 112.604 111.946C112.701 111.854 112.818 111.808 112.953 111.808C113.087 111.808 113.203 111.854 113.299 111.946C113.396 112.038 113.445 112.148 113.445 112.277C113.445 112.406 113.396 112.516 113.299 112.608C113.203 112.7 113.087 112.746 112.953 112.746ZM116.389 118.094C115.983 118.094 115.626 117.997 115.319 117.804C115.014 117.61 114.776 117.339 114.604 116.991C114.434 116.644 114.349 116.237 114.349 115.772C114.349 115.303 114.434 114.893 114.604 114.543C114.776 114.193 115.014 113.922 115.319 113.728C115.626 113.535 115.983 113.438 116.389 113.438C116.796 113.438 117.152 113.535 117.457 113.728C117.764 113.922 118.002 114.193 118.172 114.543C118.344 114.893 118.43 115.303 118.43 115.772C118.43 116.237 118.344 116.644 118.172 116.991C118.002 117.339 117.764 117.61 117.457 117.804C117.152 117.997 116.796 118.094 116.389 118.094ZM116.389 117.472C116.698 117.472 116.952 117.393 117.152 117.235C117.351 117.076 117.499 116.868 117.594 116.61C117.69 116.352 117.738 116.073 117.738 115.772C117.738 115.471 117.69 115.19 117.594 114.93C117.499 114.67 117.351 114.46 117.152 114.3C116.952 114.14 116.698 114.06 116.389 114.06C116.081 114.06 115.827 114.14 115.627 114.3C115.428 114.46 115.28 114.67 115.184 114.93C115.089 115.19 115.041 115.471 115.041 115.772C115.041 116.073 115.089 116.352 115.184 116.61C115.28 116.868 115.428 117.076 115.627 117.235C115.827 117.393 116.081 117.472 116.389 117.472ZM120.178 115.291V118H119.486V113.497H120.155V114.2H120.213C120.319 113.972 120.479 113.788 120.694 113.649C120.909 113.508 121.187 113.438 121.527 113.438C121.832 113.438 122.099 113.501 122.327 113.626C122.556 113.749 122.734 113.936 122.861 114.189C122.988 114.439 123.051 114.755 123.051 115.139V118H122.359V115.185C122.359 114.832 122.268 114.556 122.084 114.359C121.9 114.159 121.648 114.06 121.327 114.06C121.107 114.06 120.909 114.107 120.735 114.203C120.563 114.299 120.427 114.439 120.328 114.622C120.228 114.806 120.178 115.029 120.178 115.291Z" fill="#7B4425"/>
<path d="M87.7703 0C65.8835 6.15467 65.7866 26.1226 68.474 35.3372C68.7824 34.4244 72.1665 30.7212 76.3958 27.3831C81.6825 23.2104 81.8147 23.406 84.2597 20.6677C85.1415 19.6802 87.2135 16.5602 87.7703 11.6052C88.1587 8.14972 88.299 2.56445 87.7703 0Z" fill="#95C22B"/>
<path d="M48.4092 9.96686C43.9186 9.96686 41.6395 10.8235 41 10.8894C43.6461 23.1463 59.6553 30.7902 63.3599 31.8446C66.3236 32.6881 68.3876 34.5244 69.0492 35.3372C69.4461 33.0308 66.7664 23.6611 64.4503 19.6249C62.2329 15.7607 55.0907 9.96686 48.4092 9.96686Z" fill="#799B29"/>
<path d="M45.5305 32.6191H88.1163C88.1163 36.122 85.2767 38.9617 81.7738 38.9617H51.8731C48.3702 38.9617 45.5305 36.122 45.5305 32.6191Z" fill="#985B38"/>
</svg>
